<?xml version="1.0" encoding="UTF-8" standalone="no"?>
<!-- Created with Inkscape (http://www.inkscape.org/) -->

<svg
   width="46.643532mm"
   height="4.7673898mm"
   viewBox="0 0 46.643532 4.7673898"
   version="1.1"
   id="svg3440"
   inkscape:version="1.2.2 (b0a84865, 2022-12-01)"
   sodipodi:docname="drawing.svg"
   xmlns:inkscape="http://www.inkscape.org/namespaces/inkscape"
   xmlns:sodipodi="http://sodipodi.sourceforge.net/DTD/sodipodi-0.dtd"
   xmlns="http://www.w3.org/2000/svg"
   xmlns:svg="http://www.w3.org/2000/svg">
  <sodipodi:namedview
     id="namedview3442"
     pagecolor="#ffffff"
     bordercolor="#000000"
     borderopacity="0.25"
     inkscape:showpageshadow="2"
     inkscape:pageopacity="0.0"
     inkscape:pagecheckerboard="0"
     inkscape:deskcolor="#d1d1d1"
     inkscape:document-units="mm"
     showgrid="false"
     inkscape:zoom="0.2102413"
     inkscape:cx="-649.25397"
     inkscape:cy="-45.186174"
     inkscape:window-width="3008"
     inkscape:window-height="1639"
     inkscape:window-x="3008"
     inkscape:window-y="25"
     inkscape:window-maximized="1"
     inkscape:current-layer="layer1" />
  <defs
     id="defs3437" />
  <g
     inkscape:label="Layer 1"
     inkscape:groupmode="layer"
     id="layer1"
     transform="translate(-195.65281,-161.218)">
    <path
       id="path5-8"
       d="m 200.33109,165.65123 h -0.6312 v -1.90102 h -3.09657 v -0.6312 h 3.09657 V 161.218 h 0.6312 z m -4.04708,0 h -0.6312 V 161.218 h 0.6312 z m 9.69814,0 h -4.58174 V 161.218 h 4.58174 v 0.6312 h -3.95055 v 3.17083 h 3.95055 z m -0.53466,-1.90102 h -3.09657 v -0.6312 h 3.09657 z m 5.55823,1.90102 H 206.773 V 161.218 h 0.6312 v 3.80203 h 3.60152 z m 4.83608,0 h -4.23273 V 161.218 h 0.6312 v 3.80203 h 3.60153 z m 5.73832,-2.22033 c 0,0.31189 -0.0501,0.6015 -0.14852,0.86883 -0.0947,0.26733 -0.23391,0.5031 -0.41585,0.70545 -0.17822,0.20421 -0.39356,0.36201 -0.64604,0.47525 -0.24877,0.1151 -0.52353,0.1708 -0.82427,0.1708 h -1.47774 c -0.30818,0 -0.58665,-0.0557 -0.83912,-0.1708 -0.24877,-0.11324 -0.46041,-0.27104 -0.63863,-0.47525 -0.17822,-0.20235 -0.31745,-0.43812 -0.41584,-0.70545 -0.0947,-0.26733 -0.14109,-0.55694 -0.14109,-0.86883 0,-0.30075 0.0464,-0.58664 0.14109,-0.85397 0.0984,-0.26733 0.23762,-0.50124 0.41584,-0.70546 0.17822,-0.20792 0.38986,-0.36757 0.63863,-0.48267 0.25247,-0.11325 0.53094,-0.1708 0.83912,-0.1708 h 1.47774 c 0.30074,0 0.5755,0.0576 0.82427,0.1708 0.25248,0.1151 0.46782,0.27475 0.64604,0.48267 0.18194,0.20422 0.32117,0.43813 0.41585,0.70546 0.0984,0.26733 0.14852,0.55322 0.14852,0.85397 z m -0.63862,0 c 0,-0.28589 -0.0576,-0.55137 -0.1708,-0.79456 -0.10953,-0.24134 -0.26733,-0.43256 -0.47525,-0.57179 -0.20792,-0.14295 -0.45855,-0.21535 -0.75001,-0.21535 h -1.47774 c -0.29332,0 -0.54209,0.0724 -0.75001,0.21535 -0.20793,0.13923 -0.36944,0.33045 -0.48268,0.57179 -0.1151,0.24319 -0.1708,0.50867 -0.1708,0.79456 0,0.29332 0.0557,0.56065 0.1708,0.80199 0.11324,0.23763 0.27475,0.42885 0.48268,0.57179 0.20792,0.14481 0.45669,0.21535 0.75001,0.21535 h 1.47774 c 0.29146,0 0.54209,-0.0705 0.75001,-0.21535 0.20792,-0.14294 0.36572,-0.33416 0.47525,-0.57179 0.11325,-0.24134 0.1708,-0.50867 0.1708,-0.80199 z m 2.15349,1.76735 c -0.006,0.13366 -0.0297,0.26362 -0.0743,0.38614 -0.0445,0.11882 -0.0891,0.21535 -0.13367,0.28961 -0.0408,0.0743 -0.0594,0.11139 -0.0594,0.11139 l -0.40842,-0.007 c 0,0 0.0148,-0.0297 0.0445,-0.0891 0.0297,-0.0594 0.0557,-0.13923 0.0817,-0.23763 -0.1151,-0.0148 -0.21164,-0.0668 -0.28961,-0.15594 -0.0743,-0.0928 -0.11139,-0.2005 -0.11139,-0.31931 0,-0.1281 0.0445,-0.23948 0.13367,-0.33416 0.0928,-0.0928 0.20792,-0.1411 0.34159,-0.1411 0.12809,0 0.23948,0.0483 0.33416,0.1411 0.0928,0.0947 0.14109,0.21349 0.14109,0.35644 z m 3.90228,0.45298 h -0.6312 V 161.218 h 0.6312 z m 8.48587,0 h -0.63862 v -1.26982 h -3.5347 v -0.6312 h 3.5347 v -1.90101 h -2.27231 c -0.28775,0 -0.55322,0.0724 -0.79456,0.21535 -0.23763,0.13923 -0.42884,0.33045 -0.57179,0.57179 -0.13923,0.24319 -0.20792,0.50867 -0.20792,0.79456 v 2.22033 h -0.63863 v -2.22033 c 0,-0.30075 0.0557,-0.58664 0.1708,-0.85397 0.11324,-0.26733 0.27104,-0.50124 0.47525,-0.70546 0.20235,-0.20792 0.43813,-0.36757 0.70546,-0.48267 0.27104,-0.11325 0.55879,-0.1708 0.86139,-0.1708 h 2.91093 z m 4.25872,0 h -0.63863 v -2.22033 c 0,-0.28589 -0.0724,-0.55137 -0.21534,-0.79456 -0.13924,-0.24134 -0.33045,-0.43256 -0.57179,-0.57179 -0.23763,-0.14295 -0.5031,-0.21535 -0.79457,-0.21535 h -0.34158 v 3.80203 h -0.6312 V 161.218 h 0.97278 c 0.401,0 0.76858,0.10025 1.10645,0.29703 0.33602,0.19865 0.6015,0.45855 0.79457,0.77972 0.19307,-0.32117 0.45669,-0.58107 0.79456,-0.77972 0.33602,-0.19678 0.70546,-0.29703 1.10645,-0.29703 h 0.97278 v 4.43323 h -0.63119 v -3.80203 h -0.34159 c -0.29332,0 -0.55694,0.0724 -0.79456,0.21535 -0.23763,0.13923 -0.42885,0.33045 -0.57179,0.57179 -0.14481,0.24319 -0.21535,0.50867 -0.21535,0.79456 z m 0,0"
       style="display:inline;fill:#ffffff;fill-opacity:1;fill-rule:nonzero;stroke:none;stroke-width:0.63367"
       aria-label="HELLO, I AM" />
  </g>
</svg>
